<?xml version="1.0" encoding="utf-8" standalone="no"?>
<!DOCTYPE svg PUBLIC "-//W3C//DTD SVG 1.1//EN"
  "http://www.w3.org/Graphics/SVG/1.1/DTD/svg11.dtd">
<svg xmlns:xlink="http://www.w3.org/1999/xlink" width="1012.4pt" height="652.197969pt" viewBox="0 0 1012.4 652.197969" xmlns="http://www.w3.org/2000/svg" version="1.1">
 <metadata>
  <rdf:RDF xmlns:dc="http://purl.org/dc/elements/1.1/" xmlns:cc="http://creativecommons.org/ns#" xmlns:rdf="http://www.w3.org/1999/02/22-rdf-syntax-ns#">
   <cc:Work>
    <dc:type rdf:resource="http://purl.org/dc/dcmitype/StillImage"/>
    <dc:date>2026-05-11T21:30:39.529130</dc:date>
    <dc:format>image/svg+xml</dc:format>
    <dc:creator>
     <cc:Agent>
      <dc:title>Matplotlib v3.10.8, https://matplotlib.org/</dc:title>
     </cc:Agent>
    </dc:creator>
   </cc:Work>
  </rdf:RDF>
 </metadata>
 <defs>
  <style type="text/css">*{stroke-linejoin: round; stroke-linecap: butt}</style>
 </defs>
 <g id="figure_1">
  <g id="patch_1">
   <path d="M 0 652.197969 
L 1012.4 652.197969 
L 1012.4 0 
L 0 0 
z
" style="fill: #fafafa"/>
  </g>
  <g id="axes_1">
   <g id="patch_2">
    <path d="M 32.025 619.213329 
L 478.875 619.213329 
Q 485.495 619.213329 485.495 614.301969 
L 485.495 531.422769 
Q 485.495 526.511409 478.875 526.511409 
L 32.025 526.511409 
Q 25.405 526.511409 25.405 531.422769 
L 25.405 614.301969 
Q 25.405 619.213329 32.025 619.213329 
z
" clip-path="url(#p65b772d345)" style="fill: #2c5aa0; opacity: 0.92; stroke: #ffffff; stroke-width: 0.6; stroke-linejoin: miter"/>
   </g>
   <g id="patch_3">
    <path d="M 32.025 528.967089 
L 478.875 528.967089 
Q 485.495 528.967089 485.495 524.055729 
L 485.495 441.176529 
Q 485.495 436.265169 478.875 436.265169 
L 32.025 436.265169 
Q 25.405 436.265169 25.405 441.176529 
L 25.405 524.055729 
Q 25.405 528.967089 32.025 528.967089 
z
" clip-path="url(#p65b772d345)" style="fill: #3d6b99; opacity: 0.92; stroke: #ffffff; stroke-width: 0.6; stroke-linejoin: miter"/>
   </g>
   <g id="patch_4">
    <path d="M 32.025 438.720849 
L 478.875 438.720849 
Q 485.495 438.720849 485.495 433.809489 
L 485.495 350.930289 
Q 485.495 346.018929 478.875 346.018929 
L 32.025 346.018929 
Q 25.405 346.018929 25.405 350.930289 
L 25.405 433.809489 
Q 25.405 438.720849 32.025 438.720849 
z
" clip-path="url(#p65b772d345)" style="fill: #4a7ab3; opacity: 0.92; stroke: #ffffff; stroke-width: 0.6; stroke-linejoin: miter"/>
   </g>
   <g id="patch_5">
    <path d="M 32.025 348.474609 
L 478.875 348.474609 
Q 485.495 348.474609 485.495 343.563249 
L 485.495 260.684049 
Q 485.495 255.772689 478.875 255.772689 
L 32.025 255.772689 
Q 25.405 255.772689 25.405 260.684049 
L 25.405 343.563249 
Q 25.405 348.474609 32.025 348.474609 
z
" clip-path="url(#p65b772d345)" style="fill: #5a8ac4; opacity: 0.92; stroke: #ffffff; stroke-width: 0.6; stroke-linejoin: miter"/>
   </g>
   <g id="patch_6">
    <path d="M 32.025 258.228369 
L 478.875 258.228369 
Q 485.495 258.228369 485.495 253.317009 
L 485.495 170.437809 
Q 485.495 165.526449 478.875 165.526449 
L 32.025 165.526449 
Q 25.405 165.526449 25.405 170.437809 
L 25.405 253.317009 
Q 25.405 258.228369 32.025 258.228369 
z
" clip-path="url(#p65b772d345)" style="fill: #7ba3d4; opacity: 0.92; stroke: #ffffff; stroke-width: 0.6; stroke-linejoin: miter"/>
   </g>
   <g id="text_1">
    <!-- Output Format (JSON answer) -->
    <g style="fill: #ffffff" transform="translate(48.575 559.748562) scale(0.09 -0.09)">
     <defs>
      <path id="DejaVuSans-Bold-4f" d="M 2719 3878 
Q 2169 3878 1866 3472 
Q 1563 3066 1563 2328 
Q 1563 1594 1866 1187 
Q 2169 781 2719 781 
Q 3272 781 3575 1187 
Q 3878 1594 3878 2328 
Q 3878 3066 3575 3472 
Q 3272 3878 2719 3878 
z
M 2719 4750 
Q 3844 4750 4481 4106 
Q 5119 3463 5119 2328 
Q 5119 1197 4481 553 
Q 3844 -91 2719 -91 
Q 1597 -91 958 553 
Q 319 1197 319 2328 
Q 319 3463 958 4106 
Q 1597 4750 2719 4750 
z
" transform="scale(0.015625)"/>
      <path id="DejaVuSans-Bold-75" d="M 500 1363 
L 500 3500 
L 1625 3500 
L 1625 3150 
Q 1625 2866 1622 2436 
Q 1619 2006 1619 1863 
Q 1619 1441 1641 1255 
Q 1663 1069 1716 984 
Q 1784 875 1895 815 
Q 2006 756 2150 756 
Q 2500 756 2700 1025 
Q 2900 1294 2900 1772 
L 2900 3500 
L 4019 3500 
L 4019 0 
L 2900 0 
L 2900 506 
Q 2647 200 2364 54 
Q 2081 -91 1741 -91 
Q 1134 -91 817 281 
Q 500 653 500 1363 
z
" transform="scale(0.015625)"/>
      <path id="DejaVuSans-Bold-74" d="M 1759 4494 
L 1759 3500 
L 2913 3500 
L 2913 2700 
L 1759 2700 
L 1759 1216 
Q 1759 972 1856 886 
Q 1953 800 2241 800 
L 2816 800 
L 2816 0 
L 1856 0 
Q 1194 0 917 276 
Q 641 553 641 1216 
L 641 2700 
L 84 2700 
L 84 3500 
L 641 3500 
L 641 4494 
L 1759 4494 
z
" transform="scale(0.015625)"/>
      <path id="DejaVuSans-Bold-70" d="M 1656 506 
L 1656 -1331 
L 538 -1331 
L 538 3500 
L 1656 3500 
L 1656 2988 
Q 1888 3294 2169 3439 
Q 2450 3584 2816 3584 
Q 3463 3584 3878 3070 
Q 4294 2556 4294 1747 
Q 4294 938 3878 423 
Q 3463 -91 2816 -91 
Q 2450 -91 2169 54 
Q 1888 200 1656 506 
z
M 2400 2772 
Q 2041 2772 1848 2508 
Q 1656 2244 1656 1747 
Q 1656 1250 1848 986 
Q 2041 722 2400 722 
Q 2759 722 2948 984 
Q 3138 1247 3138 1747 
Q 3138 2247 2948 2509 
Q 2759 2772 2400 2772 
z
" transform="scale(0.015625)"/>
      <path id="DejaVuSans-Bold-20" transform="scale(0.015625)"/>
      <path id="DejaVuSans-Bold-46" d="M 588 4666 
L 3834 4666 
L 3834 3756 
L 1791 3756 
L 1791 2888 
L 3713 2888 
L 3713 1978 
L 1791 1978 
L 1791 0 
L 588 0 
L 588 4666 
z
" transform="scale(0.015625)"/>
      <path id="DejaVuSans-Bold-6f" d="M 2203 2784 
Q 1831 2784 1636 2517 
Q 1441 2250 1441 1747 
Q 1441 1244 1636 976 
Q 1831 709 2203 709 
Q 2569 709 2762 976 
Q 2956 1244 2956 1747 
Q 2956 2250 2762 2517 
Q 2569 2784 2203 2784 
z
M 2203 3584 
Q 3106 3584 3614 3096 
Q 4122 2609 4122 1747 
Q 4122 884 3614 396 
Q 3106 -91 2203 -91 
Q 1297 -91 786 396 
Q 275 884 275 1747 
Q 275 2609 786 3096 
Q 1297 3584 2203 3584 
z
" transform="scale(0.015625)"/>
      <path id="DejaVuSans-Bold-72" d="M 3138 2547 
Q 2991 2616 2845 2648 
Q 2700 2681 2553 2681 
Q 2122 2681 1889 2404 
Q 1656 2128 1656 1613 
L 1656 0 
L 538 0 
L 538 3500 
L 1656 3500 
L 1656 2925 
Q 1872 3269 2151 3426 
Q 2431 3584 2822 3584 
Q 2878 3584 2943 3579 
Q 3009 3575 3134 3559 
L 3138 2547 
z
" transform="scale(0.015625)"/>
      <path id="DejaVuSans-Bold-6d" d="M 3781 2919 
Q 3994 3244 4286 3414 
Q 4578 3584 4928 3584 
Q 5531 3584 5847 3212 
Q 6163 2841 6163 2131 
L 6163 0 
L 5038 0 
L 5038 1825 
Q 5041 1866 5042 1909 
Q 5044 1953 5044 2034 
Q 5044 2406 4934 2573 
Q 4825 2741 4581 2741 
Q 4263 2741 4089 2478 
Q 3916 2216 3909 1719 
L 3909 0 
L 2784 0 
L 2784 1825 
Q 2784 2406 2684 2573 
Q 2584 2741 2328 2741 
Q 2006 2741 1831 2477 
Q 1656 2213 1656 1722 
L 1656 0 
L 531 0 
L 531 3500 
L 1656 3500 
L 1656 2988 
Q 1863 3284 2130 3434 
Q 2397 3584 2719 3584 
Q 3081 3584 3359 3409 
Q 3638 3234 3781 2919 
z
" transform="scale(0.015625)"/>
      <path id="DejaVuSans-Bold-61" d="M 2106 1575 
Q 1756 1575 1579 1456 
Q 1403 1338 1403 1106 
Q 1403 894 1545 773 
Q 1688 653 1941 653 
Q 2256 653 2472 879 
Q 2688 1106 2688 1447 
L 2688 1575 
L 2106 1575 
z
M 3816 1997 
L 3816 0 
L 2688 0 
L 2688 519 
Q 2463 200 2181 54 
Q 1900 -91 1497 -91 
Q 953 -91 614 226 
Q 275 544 275 1050 
Q 275 1666 698 1953 
Q 1122 2241 2028 2241 
L 2688 2241 
L 2688 2328 
Q 2688 2594 2478 2717 
Q 2269 2841 1825 2841 
Q 1466 2841 1156 2769 
Q 847 2697 581 2553 
L 581 3406 
Q 941 3494 1303 3539 
Q 1666 3584 2028 3584 
Q 2975 3584 3395 3211 
Q 3816 2838 3816 1997 
z
" transform="scale(0.015625)"/>
      <path id="DejaVuSans-Bold-28" d="M 2413 -844 
L 1484 -844 
Q 1006 -72 778 623 
Q 550 1319 550 2003 
Q 550 2688 779 3389 
Q 1009 4091 1484 4856 
L 2413 4856 
Q 2013 4116 1813 3408 
Q 1613 2700 1613 2009 
Q 1613 1319 1811 609 
Q 2009 -100 2413 -844 
z
" transform="scale(0.015625)"/>
      <path id="DejaVuSans-Bold-4a" d="M 588 4666 
L 1791 4666 
L 1791 453 
Q 1791 -419 1317 -850 
Q 844 -1281 -116 -1281 
L -359 -1281 
L -359 -372 
L -172 -372 
Q 203 -372 395 -162 
Q 588 47 588 453 
L 588 4666 
z
" transform="scale(0.015625)"/>
      <path id="DejaVuSans-Bold-53" d="M 3834 4519 
L 3834 3531 
Q 3450 3703 3084 3790 
Q 2719 3878 2394 3878 
Q 1963 3878 1756 3759 
Q 1550 3641 1550 3391 
Q 1550 3203 1689 3098 
Q 1828 2994 2194 2919 
L 2706 2816 
Q 3484 2659 3812 2340 
Q 4141 2022 4141 1434 
Q 4141 663 3683 286 
Q 3225 -91 2284 -91 
Q 1841 -91 1394 -6 
Q 947 78 500 244 
L 500 1259 
Q 947 1022 1364 901 
Q 1781 781 2169 781 
Q 2563 781 2772 912 
Q 2981 1044 2981 1288 
Q 2981 1506 2839 1625 
Q 2697 1744 2272 1838 
L 1806 1941 
Q 1106 2091 782 2419 
Q 459 2747 459 3303 
Q 459 4000 909 4375 
Q 1359 4750 2203 4750 
Q 2588 4750 2994 4692 
Q 3400 4634 3834 4519 
z
" transform="scale(0.015625)"/>
      <path id="DejaVuSans-Bold-4e" d="M 588 4666 
L 1931 4666 
L 3628 1466 
L 3628 4666 
L 4769 4666 
L 4769 0 
L 3425 0 
L 1728 3200 
L 1728 0 
L 588 0 
L 588 4666 
z
" transform="scale(0.015625)"/>
      <path id="DejaVuSans-Bold-6e" d="M 4056 2131 
L 4056 0 
L 2931 0 
L 2931 347 
L 2931 1631 
Q 2931 2084 2911 2256 
Q 2891 2428 2841 2509 
Q 2775 2619 2662 2680 
Q 2550 2741 2406 2741 
Q 2056 2741 1856 2470 
Q 1656 2200 1656 1722 
L 1656 0 
L 538 0 
L 538 3500 
L 1656 3500 
L 1656 2988 
Q 1909 3294 2193 3439 
Q 2478 3584 2822 3584 
Q 3428 3584 3742 3212 
Q 4056 2841 4056 2131 
z
" transform="scale(0.015625)"/>
      <path id="DejaVuSans-Bold-73" d="M 3272 3391 
L 3272 2541 
Q 2913 2691 2578 2766 
Q 2244 2841 1947 2841 
Q 1628 2841 1473 2761 
Q 1319 2681 1319 2516 
Q 1319 2381 1436 2309 
Q 1553 2238 1856 2203 
L 2053 2175 
Q 2913 2066 3209 1816 
Q 3506 1566 3506 1031 
Q 3506 472 3093 190 
Q 2681 -91 1863 -91 
Q 1516 -91 1145 -36 
Q 775 19 384 128 
L 384 978 
Q 719 816 1070 734 
Q 1422 653 1784 653 
Q 2113 653 2278 743 
Q 2444 834 2444 1013 
Q 2444 1163 2330 1236 
Q 2216 1309 1875 1350 
L 1678 1375 
Q 931 1469 631 1722 
Q 331 1975 331 2491 
Q 331 3047 712 3315 
Q 1094 3584 1881 3584 
Q 2191 3584 2531 3537 
Q 2872 3491 3272 3391 
z
" transform="scale(0.015625)"/>
      <path id="DejaVuSans-Bold-77" d="M 225 3500 
L 1313 3500 
L 1900 1088 
L 2491 3500 
L 3425 3500 
L 4013 1113 
L 4603 3500 
L 5691 3500 
L 4769 0 
L 3547 0 
L 2956 2406 
L 2369 0 
L 1147 0 
L 225 3500 
z
" transform="scale(0.015625)"/>
      <path id="DejaVuSans-Bold-65" d="M 4031 1759 
L 4031 1441 
L 1416 1441 
Q 1456 1047 1700 850 
Q 1944 653 2381 653 
Q 2734 653 3104 758 
Q 3475 863 3866 1075 
L 3866 213 
Q 3469 63 3072 -14 
Q 2675 -91 2278 -91 
Q 1328 -91 801 392 
Q 275 875 275 1747 
Q 275 2603 792 3093 
Q 1309 3584 2216 3584 
Q 3041 3584 3536 3087 
Q 4031 2591 4031 1759 
z
M 2881 2131 
Q 2881 2450 2695 2645 
Q 2509 2841 2209 2841 
Q 1884 2841 1681 2658 
Q 1478 2475 1428 2131 
L 2881 2131 
z
" transform="scale(0.015625)"/>
      <path id="DejaVuSans-Bold-29" d="M 513 -844 
Q 913 -100 1113 609 
Q 1313 1319 1313 2009 
Q 1313 2700 1113 3408 
Q 913 4116 513 4856 
L 1441 4856 
Q 1916 4091 2145 3389 
Q 2375 2688 2375 2003 
Q 2375 1319 2147 623 
Q 1919 -72 1441 -844 
L 513 -844 
z
" transform="scale(0.015625)"/>
     </defs>
     <use xlink:href="#DejaVuSans-Bold-4f"/>
     <use xlink:href="#DejaVuSans-Bold-75" transform="translate(85.009766 0)"/>
     <use xlink:href="#DejaVuSans-Bold-74" transform="translate(156.201172 0)"/>
     <use xlink:href="#DejaVuSans-Bold-70" transform="translate(204.003906 0)"/>
     <use xlink:href="#DejaVuSans-Bold-75" transform="translate(275.585938 0)"/>
     <use xlink:href="#DejaVuSans-Bold-74" transform="translate(346.777344 0)"/>
     <use xlink:href="#DejaVuSans-Bold-20" transform="translate(394.580078 0)"/>
     <use xlink:href="#DejaVuSans-Bold-46" transform="translate(429.394531 0)"/>
     <use xlink:href="#DejaVuSans-Bold-6f" transform="translate(493.705078 0)"/>
     <use xlink:href="#DejaVuSans-Bold-72" transform="translate(562.40625 0)"/>
     <use xlink:href="#DejaVuSans-Bold-6d" transform="translate(611.722656 0)"/>
     <use xlink:href="#DejaVuSans-Bold-61" transform="translate(715.921875 0)"/>
     <use xlink:href="#DejaVuSans-Bold-74" transform="translate(783.402344 0)"/>
     <use xlink:href="#DejaVuSans-Bold-20" transform="translate(831.205078 0)"/>
     <use xlink:href="#DejaVuSans-Bold-28" transform="translate(866.019531 0)"/>
     <use xlink:href="#DejaVuSans-Bold-4a" transform="translate(911.722656 0)"/>
     <use xlink:href="#DejaVuSans-Bold-53" transform="translate(948.929688 0)"/>
     <use xlink:href="#DejaVuSans-Bold-4f" transform="translate(1020.951172 0)"/>
     <use xlink:href="#DejaVuSans-Bold-4e" transform="translate(1105.960938 0)"/>
     <use xlink:href="#DejaVuSans-Bold-20" transform="translate(1189.652344 0)"/>
     <use xlink:href="#DejaVuSans-Bold-61" transform="translate(1224.466797 0)"/>
     <use xlink:href="#DejaVuSans-Bold-6e" transform="translate(1291.947266 0)"/>
     <use xlink:href="#DejaVuSans-Bold-73" transform="translate(1363.138672 0)"/>
     <use xlink:href="#DejaVuSans-Bold-77" transform="translate(1422.660156 0)"/>
     <use xlink:href="#DejaVuSans-Bold-65" transform="translate(1515.042969 0)"/>
     <use xlink:href="#DejaVuSans-Bold-72" transform="translate(1582.865234 0)"/>
     <use xlink:href="#DejaVuSans-Bold-29" transform="translate(1632.181641 0)"/>
    </g>
   </g>
   <g id="text_2">
    <!-- Component Rules -->
    <g style="fill: #ffffff" transform="translate(48.575 469.502322) scale(0.09 -0.09)">
     <defs>
      <path id="DejaVuSans-Bold-43" d="M 4288 256 
Q 3956 84 3597 -3 
Q 3238 -91 2847 -91 
Q 1681 -91 1000 561 
Q 319 1213 319 2328 
Q 319 3447 1000 4098 
Q 1681 4750 2847 4750 
Q 3238 4750 3597 4662 
Q 3956 4575 4288 4403 
L 4288 3438 
Q 3953 3666 3628 3772 
Q 3303 3878 2944 3878 
Q 2300 3878 1931 3465 
Q 1563 3053 1563 2328 
Q 1563 1606 1931 1193 
Q 2300 781 2944 781 
Q 3303 781 3628 887 
Q 3953 994 4288 1222 
L 4288 256 
z
" transform="scale(0.015625)"/>
      <path id="DejaVuSans-Bold-52" d="M 2297 2597 
Q 2675 2597 2839 2737 
Q 3003 2878 3003 3200 
Q 3003 3519 2839 3656 
Q 2675 3794 2297 3794 
L 1791 3794 
L 1791 2597 
L 2297 2597 
z
M 1791 1766 
L 1791 0 
L 588 0 
L 588 4666 
L 2425 4666 
Q 3347 4666 3776 4356 
Q 4206 4047 4206 3378 
Q 4206 2916 3982 2619 
Q 3759 2322 3309 2181 
Q 3556 2125 3751 1926 
Q 3947 1728 4147 1325 
L 4800 0 
L 3519 0 
L 2950 1159 
Q 2778 1509 2601 1637 
Q 2425 1766 2131 1766 
L 1791 1766 
z
" transform="scale(0.015625)"/>
      <path id="DejaVuSans-Bold-6c" d="M 538 4863 
L 1656 4863 
L 1656 0 
L 538 0 
L 538 4863 
z
" transform="scale(0.015625)"/>
     </defs>
     <use xlink:href="#DejaVuSans-Bold-43"/>
     <use xlink:href="#DejaVuSans-Bold-6f" transform="translate(73.388672 0)"/>
     <use xlink:href="#DejaVuSans-Bold-6d" transform="translate(142.089844 0)"/>
     <use xlink:href="#DejaVuSans-Bold-70" transform="translate(246.289062 0)"/>
     <use xlink:href="#DejaVuSans-Bold-6f" transform="translate(317.871094 0)"/>
     <use xlink:href="#DejaVuSans-Bold-6e" transform="translate(386.572266 0)"/>
     <use xlink:href="#DejaVuSans-Bold-65" transform="translate(457.763672 0)"/>
     <use xlink:href="#DejaVuSans-Bold-6e" transform="translate(525.585938 0)"/>
     <use xlink:href="#DejaVuSans-Bold-74" transform="translate(596.777344 0)"/>
     <use xlink:href="#DejaVuSans-Bold-20" transform="translate(644.580078 0)"/>
     <use xlink:href="#DejaVuSans-Bold-52" transform="translate(679.394531 0)"/>
     <use xlink:href="#DejaVuSans-Bold-75" transform="translate(756.396484 0)"/>
     <use xlink:href="#DejaVuSans-Bold-6c" transform="translate(827.587891 0)"/>
     <use xlink:href="#DejaVuSans-Bold-65" transform="translate(861.865234 0)"/>
     <use xlink:href="#DejaVuSans-Bold-73" transform="translate(929.6875 0)"/>
    </g>
   </g>
   <g id="text_3">
    <!-- Task Objective &amp; Question -->
    <g style="fill: #ffffff" transform="translate(48.575 379.256082) scale(0.09 -0.09)">
     <defs>
      <path id="DejaVuSans-Bold-54" d="M 31 4666 
L 4331 4666 
L 4331 3756 
L 2784 3756 
L 2784 0 
L 1581 0 
L 1581 3756 
L 31 3756 
L 31 4666 
z
" transform="scale(0.015625)"/>
      <path id="DejaVuSans-Bold-6b" d="M 538 4863 
L 1656 4863 
L 1656 2216 
L 2944 3500 
L 4244 3500 
L 2534 1894 
L 4378 0 
L 3022 0 
L 1656 1459 
L 1656 0 
L 538 0 
L 538 4863 
z
" transform="scale(0.015625)"/>
      <path id="DejaVuSans-Bold-62" d="M 2400 722 
Q 2759 722 2948 984 
Q 3138 1247 3138 1747 
Q 3138 2247 2948 2509 
Q 2759 2772 2400 2772 
Q 2041 2772 1848 2508 
Q 1656 2244 1656 1747 
Q 1656 1250 1848 986 
Q 2041 722 2400 722 
z
M 1656 2988 
Q 1888 3294 2169 3439 
Q 2450 3584 2816 3584 
Q 3463 3584 3878 3070 
Q 4294 2556 4294 1747 
Q 4294 938 3878 423 
Q 3463 -91 2816 -91 
Q 2450 -91 2169 54 
Q 1888 200 1656 506 
L 1656 0 
L 538 0 
L 538 4863 
L 1656 4863 
L 1656 2988 
z
" transform="scale(0.015625)"/>
      <path id="DejaVuSans-Bold-6a" d="M 538 3500 
L 1656 3500 
L 1656 63 
Q 1656 -641 1318 -1011 
Q 981 -1381 341 -1381 
L -213 -1381 
L -213 -647 
L -19 -647 
Q 300 -647 419 -503 
Q 538 -359 538 63 
L 538 3500 
z
M 538 4863 
L 1656 4863 
L 1656 3950 
L 538 3950 
L 538 4863 
z
" transform="scale(0.015625)"/>
      <path id="DejaVuSans-Bold-63" d="M 3366 3391 
L 3366 2478 
Q 3138 2634 2908 2709 
Q 2678 2784 2431 2784 
Q 1963 2784 1702 2511 
Q 1441 2238 1441 1747 
Q 1441 1256 1702 982 
Q 1963 709 2431 709 
Q 2694 709 2930 787 
Q 3166 866 3366 1019 
L 3366 103 
Q 3103 6 2833 -42 
Q 2563 -91 2291 -91 
Q 1344 -91 809 395 
Q 275 881 275 1747 
Q 275 2613 809 3098 
Q 1344 3584 2291 3584 
Q 2566 3584 2833 3536 
Q 3100 3488 3366 3391 
z
" transform="scale(0.015625)"/>
      <path id="DejaVuSans-Bold-69" d="M 538 3500 
L 1656 3500 
L 1656 0 
L 538 0 
L 538 3500 
z
M 538 4863 
L 1656 4863 
L 1656 3950 
L 538 3950 
L 538 4863 
z
" transform="scale(0.015625)"/>
      <path id="DejaVuSans-Bold-76" d="M 97 3500 
L 1216 3500 
L 2088 1081 
L 2956 3500 
L 4078 3500 
L 2700 0 
L 1472 0 
L 97 3500 
z
" transform="scale(0.015625)"/>
      <path id="DejaVuSans-Bold-26" d="M 2497 3097 
L 3775 1691 
Q 3941 1909 4027 2181 
Q 4113 2453 4128 2797 
L 5100 2797 
Q 5053 2228 4879 1784 
Q 4706 1341 4397 1006 
L 5313 0 
L 3988 0 
L 3681 341 
Q 3353 122 2990 15 
Q 2628 -91 2222 -91 
Q 1400 -91 892 342 
Q 384 775 384 1459 
Q 384 1916 607 2267 
Q 831 2619 1338 2950 
Q 1206 3116 1143 3281 
Q 1081 3447 1081 3628 
Q 1081 4138 1478 4444 
Q 1875 4750 2534 4750 
Q 2819 4750 3126 4704 
Q 3434 4659 3769 4569 
L 3769 3700 
Q 3475 3850 3212 3922 
Q 2950 3994 2700 3994 
Q 2459 3994 2326 3901 
Q 2194 3809 2194 3641 
Q 2194 3534 2270 3398 
Q 2347 3263 2497 3097 
z
M 1875 2322 
Q 1672 2175 1569 1989 
Q 1466 1803 1466 1581 
Q 1466 1222 1731 969 
Q 1997 716 2369 716 
Q 2578 716 2759 780 
Q 2941 844 3097 972 
L 1875 2322 
z
" transform="scale(0.015625)"/>
      <path id="DejaVuSans-Bold-51" d="M 2847 -84 
L 2753 -84 
Q 1600 -84 959 553 
Q 319 1191 319 2328 
Q 319 3463 958 4106 
Q 1597 4750 2719 4750 
Q 3853 4750 4486 4112 
Q 5119 3475 5119 2328 
Q 5119 1541 4783 972 
Q 4447 403 3816 116 
L 4756 -934 
L 3609 -934 
L 2847 -84 
z
M 2719 3878 
Q 2169 3878 1866 3472 
Q 1563 3066 1563 2328 
Q 1563 1578 1859 1179 
Q 2156 781 2719 781 
Q 3272 781 3575 1187 
Q 3878 1594 3878 2328 
Q 3878 3066 3575 3472 
Q 3272 3878 2719 3878 
z
" transform="scale(0.015625)"/>
     </defs>
     <use xlink:href="#DejaVuSans-Bold-54"/>
     <use xlink:href="#DejaVuSans-Bold-61" transform="translate(55.337891 0)"/>
     <use xlink:href="#DejaVuSans-Bold-73" transform="translate(122.818359 0)"/>
     <use xlink:href="#DejaVuSans-Bold-6b" transform="translate(182.339844 0)"/>
     <use xlink:href="#DejaVuSans-Bold-20" transform="translate(248.84375 0)"/>
     <use xlink:href="#DejaVuSans-Bold-4f" transform="translate(283.658203 0)"/>
     <use xlink:href="#DejaVuSans-Bold-62" transform="translate(368.667969 0)"/>
     <use xlink:href="#DejaVuSans-Bold-6a" transform="translate(440.25 0)"/>
     <use xlink:href="#DejaVuSans-Bold-65" transform="translate(474.527344 0)"/>
     <use xlink:href="#DejaVuSans-Bold-63" transform="translate(542.349609 0)"/>
     <use xlink:href="#DejaVuSans-Bold-74" transform="translate(601.626953 0)"/>
     <use xlink:href="#DejaVuSans-Bold-69" transform="translate(649.429688 0)"/>
     <use xlink:href="#DejaVuSans-Bold-76" transform="translate(683.707031 0)"/>
     <use xlink:href="#DejaVuSans-Bold-65" transform="translate(748.892578 0)"/>
     <use xlink:href="#DejaVuSans-Bold-20" transform="translate(816.714844 0)"/>
     <use xlink:href="#DejaVuSans-Bold-26" transform="translate(851.529297 0)"/>
     <use xlink:href="#DejaVuSans-Bold-20" transform="translate(938.736328 0)"/>
     <use xlink:href="#DejaVuSans-Bold-51" transform="translate(973.550781 0)"/>
     <use xlink:href="#DejaVuSans-Bold-75" transform="translate(1058.560547 0)"/>
     <use xlink:href="#DejaVuSans-Bold-65" transform="translate(1129.751953 0)"/>
     <use xlink:href="#DejaVuSans-Bold-73" transform="translate(1197.574219 0)"/>
     <use xlink:href="#DejaVuSans-Bold-74" transform="translate(1257.095703 0)"/>
     <use xlink:href="#DejaVuSans-Bold-69" transform="translate(1304.898438 0)"/>
     <use xlink:href="#DejaVuSans-Bold-6f" transform="translate(1339.175781 0)"/>
     <use xlink:href="#DejaVuSans-Bold-6e" transform="translate(1407.876953 0)"/>
    </g>
   </g>
   <g id="text_4">
    <!-- Board JSON + Reference Solution -->
    <g style="fill: #ffffff" transform="translate(48.575 289.009842) scale(0.09 -0.09)">
     <defs>
      <path id="DejaVuSans-Bold-42" d="M 2456 2859 
Q 2741 2859 2887 2984 
Q 3034 3109 3034 3353 
Q 3034 3594 2887 3720 
Q 2741 3847 2456 3847 
L 1791 3847 
L 1791 2859 
L 2456 2859 
z
M 2497 819 
Q 2859 819 3042 972 
Q 3225 1125 3225 1434 
Q 3225 1738 3044 1889 
Q 2863 2041 2497 2041 
L 1791 2041 
L 1791 819 
L 2497 819 
z
M 3616 2497 
Q 4003 2384 4215 2081 
Q 4428 1778 4428 1338 
Q 4428 663 3972 331 
Q 3516 0 2584 0 
L 588 0 
L 588 4666 
L 2394 4666 
Q 3366 4666 3802 4372 
Q 4238 4078 4238 3431 
Q 4238 3091 4078 2852 
Q 3919 2613 3616 2497 
z
" transform="scale(0.015625)"/>
      <path id="DejaVuSans-Bold-64" d="M 2919 2988 
L 2919 4863 
L 4044 4863 
L 4044 0 
L 2919 0 
L 2919 506 
Q 2688 197 2409 53 
Q 2131 -91 1766 -91 
Q 1119 -91 703 423 
Q 288 938 288 1747 
Q 288 2556 703 3070 
Q 1119 3584 1766 3584 
Q 2128 3584 2408 3439 
Q 2688 3294 2919 2988 
z
M 2181 722 
Q 2541 722 2730 984 
Q 2919 1247 2919 1747 
Q 2919 2247 2730 2509 
Q 2541 2772 2181 2772 
Q 1825 2772 1636 2509 
Q 1447 2247 1447 1747 
Q 1447 1247 1636 984 
Q 1825 722 2181 722 
z
" transform="scale(0.015625)"/>
      <path id="DejaVuSans-Bold-2b" d="M 3053 4013 
L 3053 2375 
L 4684 2375 
L 4684 1638 
L 3053 1638 
L 3053 0 
L 2309 0 
L 2309 1638 
L 678 1638 
L 678 2375 
L 2309 2375 
L 2309 4013 
L 3053 4013 
z
" transform="scale(0.015625)"/>
      <path id="DejaVuSans-Bold-66" d="M 2841 4863 
L 2841 4128 
L 2222 4128 
Q 1984 4128 1890 4042 
Q 1797 3956 1797 3744 
L 1797 3500 
L 2753 3500 
L 2753 2700 
L 1797 2700 
L 1797 0 
L 678 0 
L 678 2700 
L 122 2700 
L 122 3500 
L 678 3500 
L 678 3744 
Q 678 4316 997 4589 
Q 1316 4863 1984 4863 
L 2841 4863 
z
" transform="scale(0.015625)"/>
     </defs>
     <use xlink:href="#DejaVuSans-Bold-42"/>
     <use xlink:href="#DejaVuSans-Bold-6f" transform="translate(76.220703 0)"/>
     <use xlink:href="#DejaVuSans-Bold-61" transform="translate(144.921875 0)"/>
     <use xlink:href="#DejaVuSans-Bold-72" transform="translate(212.402344 0)"/>
     <use xlink:href="#DejaVuSans-Bold-64" transform="translate(261.71875 0)"/>
     <use xlink:href="#DejaVuSans-Bold-20" transform="translate(333.300781 0)"/>
     <use xlink:href="#DejaVuSans-Bold-4a" transform="translate(368.115234 0)"/>
     <use xlink:href="#DejaVuSans-Bold-53" transform="translate(405.322266 0)"/>
     <use xlink:href="#DejaVuSans-Bold-4f" transform="translate(477.34375 0)"/>
     <use xlink:href="#DejaVuSans-Bold-4e" transform="translate(562.353516 0)"/>
     <use xlink:href="#DejaVuSans-Bold-20" transform="translate(646.044922 0)"/>
     <use xlink:href="#DejaVuSans-Bold-2b" transform="translate(680.859375 0)"/>
     <use xlink:href="#DejaVuSans-Bold-20" transform="translate(764.648438 0)"/>
     <use xlink:href="#DejaVuSans-Bold-52" transform="translate(799.462891 0)"/>
     <use xlink:href="#DejaVuSans-Bold-65" transform="translate(876.464844 0)"/>
     <use xlink:href="#DejaVuSans-Bold-66" transform="translate(944.287109 0)"/>
     <use xlink:href="#DejaVuSans-Bold-65" transform="translate(987.792969 0)"/>
     <use xlink:href="#DejaVuSans-Bold-72" transform="translate(1055.615234 0)"/>
     <use xlink:href="#DejaVuSans-Bold-65" transform="translate(1104.931641 0)"/>
     <use xlink:href="#DejaVuSans-Bold-6e" transform="translate(1172.753906 0)"/>
     <use xlink:href="#DejaVuSans-Bold-63" transform="translate(1243.945312 0)"/>
     <use xlink:href="#DejaVuSans-Bold-65" transform="translate(1303.222656 0)"/>
     <use xlink:href="#DejaVuSans-Bold-20" transform="translate(1371.044922 0)"/>
     <use xlink:href="#DejaVuSans-Bold-53" transform="translate(1405.859375 0)"/>
     <use xlink:href="#DejaVuSans-Bold-6f" transform="translate(1477.880859 0)"/>
     <use xlink:href="#DejaVuSans-Bold-6c" transform="translate(1546.582031 0)"/>
     <use xlink:href="#DejaVuSans-Bold-75" transform="translate(1580.859375 0)"/>
     <use xlink:href="#DejaVuSans-Bold-74" transform="translate(1652.050781 0)"/>
     <use xlink:href="#DejaVuSans-Bold-69" transform="translate(1699.853516 0)"/>
     <use xlink:href="#DejaVuSans-Bold-6f" transform="translate(1734.130859 0)"/>
     <use xlink:href="#DejaVuSans-Bold-6e" transform="translate(1802.832031 0)"/>
    </g>
   </g>
   <g id="text_5">
    <!-- System Prompt (expert analyst) -->
    <g style="fill: #ffffff" transform="translate(48.575 198.763602) scale(0.09 -0.09)">
     <defs>
      <path id="DejaVuSans-Bold-79" d="M 78 3500 
L 1197 3500 
L 2138 1125 
L 2938 3500 
L 4056 3500 
L 2584 -331 
Q 2363 -916 2067 -1148 
Q 1772 -1381 1288 -1381 
L 641 -1381 
L 641 -647 
L 991 -647 
Q 1275 -647 1404 -556 
Q 1534 -466 1606 -231 
L 1638 -134 
L 78 3500 
z
" transform="scale(0.015625)"/>
      <path id="DejaVuSans-Bold-50" d="M 588 4666 
L 2584 4666 
Q 3475 4666 3951 4270 
Q 4428 3875 4428 3144 
Q 4428 2409 3951 2014 
Q 3475 1619 2584 1619 
L 1791 1619 
L 1791 0 
L 588 0 
L 588 4666 
z
M 1791 3794 
L 1791 2491 
L 2456 2491 
Q 2806 2491 2997 2661 
Q 3188 2831 3188 3144 
Q 3188 3456 2997 3625 
Q 2806 3794 2456 3794 
L 1791 3794 
z
" transform="scale(0.015625)"/>
      <path id="DejaVuSans-Bold-78" d="M 1422 1791 
L 159 3500 
L 1344 3500 
L 2059 2463 
L 2784 3500 
L 3969 3500 
L 2706 1797 
L 4031 0 
L 2847 0 
L 2059 1106 
L 1281 0 
L 97 0 
L 1422 1791 
z
" transform="scale(0.015625)"/>
     </defs>
     <use xlink:href="#DejaVuSans-Bold-53"/>
     <use xlink:href="#DejaVuSans-Bold-79" transform="translate(72.021484 0)"/>
     <use xlink:href="#DejaVuSans-Bold-73" transform="translate(137.207031 0)"/>
     <use xlink:href="#DejaVuSans-Bold-74" transform="translate(196.728516 0)"/>
     <use xlink:href="#DejaVuSans-Bold-65" transform="translate(244.53125 0)"/>
     <use xlink:href="#DejaVuSans-Bold-6d" transform="translate(312.353516 0)"/>
     <use xlink:href="#DejaVuSans-Bold-20" transform="translate(416.552734 0)"/>
     <use xlink:href="#DejaVuSans-Bold-50" transform="translate(451.367188 0)"/>
     <use xlink:href="#DejaVuSans-Bold-72" transform="translate(524.658203 0)"/>
     <use xlink:href="#DejaVuSans-Bold-6f" transform="translate(573.974609 0)"/>
     <use xlink:href="#DejaVuSans-Bold-6d" transform="translate(642.675781 0)"/>
     <use xlink:href="#DejaVuSans-Bold-70" transform="translate(746.875 0)"/>
     <use xlink:href="#DejaVuSans-Bold-74" transform="translate(818.457031 0)"/>
     <use xlink:href="#DejaVuSans-Bold-20" transform="translate(866.259766 0)"/>
     <use xlink:href="#DejaVuSans-Bold-28" transform="translate(901.074219 0)"/>
     <use xlink:href="#DejaVuSans-Bold-65" transform="translate(946.777344 0)"/>
     <use xlink:href="#DejaVuSans-Bold-78" transform="translate(1014.599609 0)"/>
     <use xlink:href="#DejaVuSans-Bold-70" transform="translate(1079.101562 0)"/>
     <use xlink:href="#DejaVuSans-Bold-65" transform="translate(1150.683594 0)"/>
     <use xlink:href="#DejaVuSans-Bold-72" transform="translate(1218.505859 0)"/>
     <use xlink:href="#DejaVuSans-Bold-74" transform="translate(1267.822266 0)"/>
     <use xlink:href="#DejaVuSans-Bold-20" transform="translate(1315.625 0)"/>
     <use xlink:href="#DejaVuSans-Bold-61" transform="translate(1350.439453 0)"/>
     <use xlink:href="#DejaVuSans-Bold-6e" transform="translate(1417.919922 0)"/>
     <use xlink:href="#DejaVuSans-Bold-61" transform="translate(1489.111328 0)"/>
     <use xlink:href="#DejaVuSans-Bold-6c" transform="translate(1556.591797 0)"/>
     <use xlink:href="#DejaVuSans-Bold-79" transform="translate(1590.869141 0)"/>
     <use xlink:href="#DejaVuSans-Bold-73" transform="translate(1656.054688 0)"/>
     <use xlink:href="#DejaVuSans-Bold-74" transform="translate(1715.576172 0)"/>
     <use xlink:href="#DejaVuSans-Bold-29" transform="translate(1763.378906 0)"/>
    </g>
   </g>
   <g id="text_6">
    <!-- Procedural Understanding -->
    <g style="fill: #1a3a6b" transform="translate(159.068203 17.077969) scale(0.13 -0.13)">
     <defs>
      <path id="DejaVuSans-Bold-55" d="M 588 4666 
L 1791 4666 
L 1791 1869 
Q 1791 1291 1980 1042 
Q 2169 794 2597 794 
Q 3028 794 3217 1042 
Q 3406 1291 3406 1869 
L 3406 4666 
L 4609 4666 
L 4609 1869 
Q 4609 878 4112 393 
Q 3616 -91 2597 -91 
Q 1581 -91 1084 393 
Q 588 878 588 1869 
L 588 4666 
z
" transform="scale(0.015625)"/>
      <path id="DejaVuSans-Bold-67" d="M 2919 594 
Q 2688 288 2409 144 
Q 2131 0 1766 0 
Q 1125 0 706 504 
Q 288 1009 288 1791 
Q 288 2575 706 3076 
Q 1125 3578 1766 3578 
Q 2131 3578 2409 3434 
Q 2688 3291 2919 2981 
L 2919 3500 
L 4044 3500 
L 4044 353 
Q 4044 -491 3511 -936 
Q 2978 -1381 1966 -1381 
Q 1638 -1381 1331 -1331 
Q 1025 -1281 716 -1178 
L 716 -306 
Q 1009 -475 1290 -558 
Q 1572 -641 1856 -641 
Q 2406 -641 2662 -400 
Q 2919 -159 2919 353 
L 2919 594 
z
M 2181 2772 
Q 1834 2772 1640 2515 
Q 1447 2259 1447 1791 
Q 1447 1309 1634 1061 
Q 1822 813 2181 813 
Q 2531 813 2725 1069 
Q 2919 1325 2919 1791 
Q 2919 2259 2725 2515 
Q 2531 2772 2181 2772 
z
" transform="scale(0.015625)"/>
     </defs>
     <use xlink:href="#DejaVuSans-Bold-50"/>
     <use xlink:href="#DejaVuSans-Bold-72" transform="translate(73.291016 0)"/>
     <use xlink:href="#DejaVuSans-Bold-6f" transform="translate(122.607422 0)"/>
     <use xlink:href="#DejaVuSans-Bold-63" transform="translate(191.308594 0)"/>
     <use xlink:href="#DejaVuSans-Bold-65" transform="translate(250.585938 0)"/>
     <use xlink:href="#DejaVuSans-Bold-64" transform="translate(318.408203 0)"/>
     <use xlink:href="#DejaVuSans-Bold-75" transform="translate(389.990234 0)"/>
     <use xlink:href="#DejaVuSans-Bold-72" transform="translate(461.181641 0)"/>
     <use xlink:href="#DejaVuSans-Bold-61" transform="translate(510.498047 0)"/>
     <use xlink:href="#DejaVuSans-Bold-6c" transform="translate(577.978516 0)"/>
     <use xlink:href="#DejaVuSans-Bold-20" transform="translate(612.255859 0)"/>
     <use xlink:href="#DejaVuSans-Bold-55" transform="translate(647.070312 0)"/>
     <use xlink:href="#DejaVuSans-Bold-6e" transform="translate(728.271484 0)"/>
     <use xlink:href="#DejaVuSans-Bold-64" transform="translate(799.462891 0)"/>
     <use xlink:href="#DejaVuSans-Bold-65" transform="translate(871.044922 0)"/>
     <use xlink:href="#DejaVuSans-Bold-72" transform="translate(938.867188 0)"/>
     <use xlink:href="#DejaVuSans-Bold-73" transform="translate(988.183594 0)"/>
     <use xlink:href="#DejaVuSans-Bold-74" transform="translate(1047.705078 0)"/>
     <use xlink:href="#DejaVuSans-Bold-61" transform="translate(1095.507812 0)"/>
     <use xlink:href="#DejaVuSans-Bold-6e" transform="translate(1162.988281 0)"/>
     <use xlink:href="#DejaVuSans-Bold-64" transform="translate(1234.179688 0)"/>
     <use xlink:href="#DejaVuSans-Bold-69" transform="translate(1305.761719 0)"/>
     <use xlink:href="#DejaVuSans-Bold-6e" transform="translate(1340.039062 0)"/>
     <use xlink:href="#DejaVuSans-Bold-67" transform="translate(1411.230469 0)"/>
    </g>
   </g>
  </g>
  <g id="axes_2">
   <g id="patch_7">
    <path d="M 533.525 619.213329 
L 980.375 619.213329 
Q 986.995 619.213329 986.995 614.301969 
L 986.995 531.422769 
Q 986.995 526.511409 980.375 526.511409 
L 533.525 526.511409 
Q 526.905 526.511409 526.905 531.422769 
L 526.905 614.301969 
Q 526.905 619.213329 533.525 619.213329 
z
" clip-path="url(#p9664118cb7)" style="fill: #2c5aa0; opacity: 0.92; stroke: #ffffff; stroke-width: 0.6; stroke-linejoin: miter"/>
   </g>
   <g id="patch_8">
    <path d="M 533.525 528.967089 
L 980.375 528.967089 
Q 986.995 528.967089 986.995 524.055729 
L 986.995 441.176529 
Q 986.995 436.265169 980.375 436.265169 
L 533.525 436.265169 
Q 526.905 436.265169 526.905 441.176529 
L 526.905 524.055729 
Q 526.905 528.967089 533.525 528.967089 
z
" clip-path="url(#p9664118cb7)" style="fill: #3d6b99; opacity: 0.92; stroke: #ffffff; stroke-width: 0.6; stroke-linejoin: miter"/>
   </g>
   <g id="patch_9">
    <path d="M 533.525 438.720849 
L 980.375 438.720849 
Q 986.995 438.720849 986.995 433.809489 
L 986.995 350.930289 
Q 986.995 346.018929 980.375 346.018929 
L 533.525 346.018929 
Q 526.905 346.018929 526.905 350.930289 
L 526.905 433.809489 
Q 526.905 438.720849 533.525 438.720849 
z
" clip-path="url(#p9664118cb7)" style="fill: #4a7ab3; opacity: 0.92; stroke: #ffffff; stroke-width: 0.6; stroke-linejoin: miter"/>
   </g>
   <g id="patch_10">
    <path d="M 533.525 348.474609 
L 980.375 348.474609 
Q 986.995 348.474609 986.995 343.563249 
L 986.995 260.684049 
Q 986.995 255.772689 980.375 255.772689 
L 533.525 255.772689 
Q 526.905 255.772689 526.905 260.684049 
L 526.905 343.563249 
Q 526.905 348.474609 533.525 348.474609 
z
" clip-path="url(#p9664118cb7)" style="fill: #5a8ac4; opacity: 0.92; stroke: #ffffff; stroke-width: 0.6; stroke-linejoin: miter"/>
   </g>
   <g id="patch_11">
    <path d="M 533.525 258.228369 
L 980.375 258.228369 
Q 986.995 258.228369 986.995 253.317009 
L 986.995 170.437809 
Q 986.995 165.526449 980.375 165.526449 
L 533.525 165.526449 
Q 526.905 165.526449 526.905 170.437809 
L 526.905 253.317009 
Q 526.905 258.228369 533.525 258.228369 
z
" clip-path="url(#p9664118cb7)" style="fill: #7ba3d4; opacity: 0.92; stroke: #ffffff; stroke-width: 0.6; stroke-linejoin: miter"/>
   </g>
   <g id="text_7">
    <!-- Output Format (tool-calling JSON) -->
    <g style="fill: #ffffff" transform="translate(550.075 559.748562) scale(0.09 -0.09)">
     <defs>
      <path id="DejaVuSans-Bold-2d" d="M 347 2297 
L 2309 2297 
L 2309 1388 
L 347 1388 
L 347 2297 
z
" transform="scale(0.015625)"/>
     </defs>
     <use xlink:href="#DejaVuSans-Bold-4f"/>
     <use xlink:href="#DejaVuSans-Bold-75" transform="translate(85.009766 0)"/>
     <use xlink:href="#DejaVuSans-Bold-74" transform="translate(156.201172 0)"/>
     <use xlink:href="#DejaVuSans-Bold-70" transform="translate(204.003906 0)"/>
     <use xlink:href="#DejaVuSans-Bold-75" transform="translate(275.585938 0)"/>
     <use xlink:href="#DejaVuSans-Bold-74" transform="translate(346.777344 0)"/>
     <use xlink:href="#DejaVuSans-Bold-20" transform="translate(394.580078 0)"/>
     <use xlink:href="#DejaVuSans-Bold-46" transform="translate(429.394531 0)"/>
     <use xlink:href="#DejaVuSans-Bold-6f" transform="translate(493.705078 0)"/>
     <use xlink:href="#DejaVuSans-Bold-72" transform="translate(562.40625 0)"/>
     <use xlink:href="#DejaVuSans-Bold-6d" transform="translate(611.722656 0)"/>
     <use xlink:href="#DejaVuSans-Bold-61" transform="translate(715.921875 0)"/>
     <use xlink:href="#DejaVuSans-Bold-74" transform="translate(783.402344 0)"/>
     <use xlink:href="#DejaVuSans-Bold-20" transform="translate(831.205078 0)"/>
     <use xlink:href="#DejaVuSans-Bold-28" transform="translate(866.019531 0)"/>
     <use xlink:href="#DejaVuSans-Bold-74" transform="translate(911.722656 0)"/>
     <use xlink:href="#DejaVuSans-Bold-6f" transform="translate(959.525391 0)"/>
     <use xlink:href="#DejaVuSans-Bold-6f" transform="translate(1028.226562 0)"/>
     <use xlink:href="#DejaVuSans-Bold-6c" transform="translate(1096.927734 0)"/>
     <use xlink:href="#DejaVuSans-Bold-2d" transform="translate(1131.205078 0)"/>
     <use xlink:href="#DejaVuSans-Bold-63" transform="translate(1172.708984 0)"/>
     <use xlink:href="#DejaVuSans-Bold-61" transform="translate(1231.986328 0)"/>
     <use xlink:href="#DejaVuSans-Bold-6c" transform="translate(1299.466797 0)"/>
     <use xlink:href="#DejaVuSans-Bold-6c" transform="translate(1333.744141 0)"/>
     <use xlink:href="#DejaVuSans-Bold-69" transform="translate(1368.021484 0)"/>
     <use xlink:href="#DejaVuSans-Bold-6e" transform="translate(1402.298828 0)"/>
     <use xlink:href="#DejaVuSans-Bold-67" transform="translate(1473.490234 0)"/>
     <use xlink:href="#DejaVuSans-Bold-20" transform="translate(1545.072266 0)"/>
     <use xlink:href="#DejaVuSans-Bold-4a" transform="translate(1579.886719 0)"/>
     <use xlink:href="#DejaVuSans-Bold-53" transform="translate(1617.09375 0)"/>
     <use xlink:href="#DejaVuSans-Bold-4f" transform="translate(1689.115234 0)"/>
     <use xlink:href="#DejaVuSans-Bold-4e" transform="translate(1774.125 0)"/>
     <use xlink:href="#DejaVuSans-Bold-29" transform="translate(1857.816406 0)"/>
    </g>
   </g>
   <g id="text_8">
    <!-- Component Rules -->
    <g style="fill: #ffffff" transform="translate(550.075 469.502322) scale(0.09 -0.09)">
     <use xlink:href="#DejaVuSans-Bold-43"/>
     <use xlink:href="#DejaVuSans-Bold-6f" transform="translate(73.388672 0)"/>
     <use xlink:href="#DejaVuSans-Bold-6d" transform="translate(142.089844 0)"/>
     <use xlink:href="#DejaVuSans-Bold-70" transform="translate(246.289062 0)"/>
     <use xlink:href="#DejaVuSans-Bold-6f" transform="translate(317.871094 0)"/>
     <use xlink:href="#DejaVuSans-Bold-6e" transform="translate(386.572266 0)"/>
     <use xlink:href="#DejaVuSans-Bold-65" transform="translate(457.763672 0)"/>
     <use xlink:href="#DejaVuSans-Bold-6e" transform="translate(525.585938 0)"/>
     <use xlink:href="#DejaVuSans-Bold-74" transform="translate(596.777344 0)"/>
     <use xlink:href="#DejaVuSans-Bold-20" transform="translate(644.580078 0)"/>
     <use xlink:href="#DejaVuSans-Bold-52" transform="translate(679.394531 0)"/>
     <use xlink:href="#DejaVuSans-Bold-75" transform="translate(756.396484 0)"/>
     <use xlink:href="#DejaVuSans-Bold-6c" transform="translate(827.587891 0)"/>
     <use xlink:href="#DejaVuSans-Bold-65" transform="translate(861.865234 0)"/>
     <use xlink:href="#DejaVuSans-Bold-73" transform="translate(929.6875 0)"/>
    </g>
   </g>
   <g id="text_9">
    <!-- Task Objective &amp; Available Parts -->
    <g style="fill: #ffffff" transform="translate(550.075 379.256082) scale(0.09 -0.09)">
     <defs>
      <path id="DejaVuSans-Bold-41" d="M 3419 850 
L 1538 850 
L 1241 0 
L 31 0 
L 1759 4666 
L 3194 4666 
L 4922 0 
L 3713 0 
L 3419 850 
z
M 1838 1716 
L 3116 1716 
L 2478 3572 
L 1838 1716 
z
" transform="scale(0.015625)"/>
     </defs>
     <use xlink:href="#DejaVuSans-Bold-54"/>
     <use xlink:href="#DejaVuSans-Bold-61" transform="translate(55.337891 0)"/>
     <use xlink:href="#DejaVuSans-Bold-73" transform="translate(122.818359 0)"/>
     <use xlink:href="#DejaVuSans-Bold-6b" transform="translate(182.339844 0)"/>
     <use xlink:href="#DejaVuSans-Bold-20" transform="translate(248.84375 0)"/>
     <use xlink:href="#DejaVuSans-Bold-4f" transform="translate(283.658203 0)"/>
     <use xlink:href="#DejaVuSans-Bold-62" transform="translate(368.667969 0)"/>
     <use xlink:href="#DejaVuSans-Bold-6a" transform="translate(440.25 0)"/>
     <use xlink:href="#DejaVuSans-Bold-65" transform="translate(474.527344 0)"/>
     <use xlink:href="#DejaVuSans-Bold-63" transform="translate(542.349609 0)"/>
     <use xlink:href="#DejaVuSans-Bold-74" transform="translate(601.626953 0)"/>
     <use xlink:href="#DejaVuSans-Bold-69" transform="translate(649.429688 0)"/>
     <use xlink:href="#DejaVuSans-Bold-76" transform="translate(683.707031 0)"/>
     <use xlink:href="#DejaVuSans-Bold-65" transform="translate(748.892578 0)"/>
     <use xlink:href="#DejaVuSans-Bold-20" transform="translate(816.714844 0)"/>
     <use xlink:href="#DejaVuSans-Bold-26" transform="translate(851.529297 0)"/>
     <use xlink:href="#DejaVuSans-Bold-20" transform="translate(938.736328 0)"/>
     <use xlink:href="#DejaVuSans-Bold-41" transform="translate(973.550781 0)"/>
     <use xlink:href="#DejaVuSans-Bold-76" transform="translate(1047.318359 0)"/>
     <use xlink:href="#DejaVuSans-Bold-61" transform="translate(1112.503906 0)"/>
     <use xlink:href="#DejaVuSans-Bold-69" transform="translate(1179.984375 0)"/>
     <use xlink:href="#DejaVuSans-Bold-6c" transform="translate(1214.261719 0)"/>
     <use xlink:href="#DejaVuSans-Bold-61" transform="translate(1248.539062 0)"/>
     <use xlink:href="#DejaVuSans-Bold-62" transform="translate(1316.019531 0)"/>
     <use xlink:href="#DejaVuSans-Bold-6c" transform="translate(1387.601562 0)"/>
     <use xlink:href="#DejaVuSans-Bold-65" transform="translate(1421.878906 0)"/>
     <use xlink:href="#DejaVuSans-Bold-20" transform="translate(1489.701172 0)"/>
     <use xlink:href="#DejaVuSans-Bold-50" transform="translate(1524.515625 0)"/>
     <use xlink:href="#DejaVuSans-Bold-61" transform="translate(1595.181641 0)"/>
     <use xlink:href="#DejaVuSans-Bold-72" transform="translate(1662.662109 0)"/>
     <use xlink:href="#DejaVuSans-Bold-74" transform="translate(1711.978516 0)"/>
     <use xlink:href="#DejaVuSans-Bold-73" transform="translate(1759.78125 0)"/>
    </g>
   </g>
   <g id="text_10">
    <!-- Board JSON (fixed only, no solution) -->
    <g style="fill: #ffffff" transform="translate(550.075 289.009842) scale(0.09 -0.09)">
     <defs>
      <path id="DejaVuSans-Bold-2c" d="M 653 1209 
L 1778 1209 
L 1778 256 
L 1006 -909 
L 341 -909 
L 653 256 
L 653 1209 
z
" transform="scale(0.015625)"/>
     </defs>
     <use xlink:href="#DejaVuSans-Bold-42"/>
     <use xlink:href="#DejaVuSans-Bold-6f" transform="translate(76.220703 0)"/>
     <use xlink:href="#DejaVuSans-Bold-61" transform="translate(144.921875 0)"/>
     <use xlink:href="#DejaVuSans-Bold-72" transform="translate(212.402344 0)"/>
     <use xlink:href="#DejaVuSans-Bold-64" transform="translate(261.71875 0)"/>
     <use xlink:href="#DejaVuSans-Bold-20" transform="translate(333.300781 0)"/>
     <use xlink:href="#DejaVuSans-Bold-4a" transform="translate(368.115234 0)"/>
     <use xlink:href="#DejaVuSans-Bold-53" transform="translate(405.322266 0)"/>
     <use xlink:href="#DejaVuSans-Bold-4f" transform="translate(477.34375 0)"/>
     <use xlink:href="#DejaVuSans-Bold-4e" transform="translate(562.353516 0)"/>
     <use xlink:href="#DejaVuSans-Bold-20" transform="translate(646.044922 0)"/>
     <use xlink:href="#DejaVuSans-Bold-28" transform="translate(680.859375 0)"/>
     <use xlink:href="#DejaVuSans-Bold-66" transform="translate(726.5625 0)"/>
     <use xlink:href="#DejaVuSans-Bold-69" transform="translate(770.068359 0)"/>
     <use xlink:href="#DejaVuSans-Bold-78" transform="translate(804.345703 0)"/>
     <use xlink:href="#DejaVuSans-Bold-65" transform="translate(868.847656 0)"/>
     <use xlink:href="#DejaVuSans-Bold-64" transform="translate(936.669922 0)"/>
     <use xlink:href="#DejaVuSans-Bold-20" transform="translate(1008.251953 0)"/>
     <use xlink:href="#DejaVuSans-Bold-6f" transform="translate(1043.066406 0)"/>
     <use xlink:href="#DejaVuSans-Bold-6e" transform="translate(1111.767578 0)"/>
     <use xlink:href="#DejaVuSans-Bold-6c" transform="translate(1182.958984 0)"/>
     <use xlink:href="#DejaVuSans-Bold-79" transform="translate(1217.236328 0)"/>
     <use xlink:href="#DejaVuSans-Bold-2c" transform="translate(1274.671875 0)"/>
     <use xlink:href="#DejaVuSans-Bold-20" transform="translate(1312.660156 0)"/>
     <use xlink:href="#DejaVuSans-Bold-6e" transform="translate(1347.474609 0)"/>
     <use xlink:href="#DejaVuSans-Bold-6f" transform="translate(1418.666016 0)"/>
     <use xlink:href="#DejaVuSans-Bold-20" transform="translate(1487.367188 0)"/>
     <use xlink:href="#DejaVuSans-Bold-73" transform="translate(1522.181641 0)"/>
     <use xlink:href="#DejaVuSans-Bold-6f" transform="translate(1581.703125 0)"/>
     <use xlink:href="#DejaVuSans-Bold-6c" transform="translate(1650.404297 0)"/>
     <use xlink:href="#DejaVuSans-Bold-75" transform="translate(1684.681641 0)"/>
     <use xlink:href="#DejaVuSans-Bold-74" transform="translate(1755.873047 0)"/>
     <use xlink:href="#DejaVuSans-Bold-69" transform="translate(1803.675781 0)"/>
     <use xlink:href="#DejaVuSans-Bold-6f" transform="translate(1837.953125 0)"/>
     <use xlink:href="#DejaVuSans-Bold-6e" transform="translate(1906.654297 0)"/>
     <use xlink:href="#DejaVuSans-Bold-29" transform="translate(1977.845703 0)"/>
    </g>
   </g>
   <g id="text_11">
    <!-- System Prompt (solver agent + workflow) -->
    <g style="fill: #ffffff" transform="translate(550.075 198.763602) scale(0.09 -0.09)">
     <use xlink:href="#DejaVuSans-Bold-53"/>
     <use xlink:href="#DejaVuSans-Bold-79" transform="translate(72.021484 0)"/>
     <use xlink:href="#DejaVuSans-Bold-73" transform="translate(137.207031 0)"/>
     <use xlink:href="#DejaVuSans-Bold-74" transform="translate(196.728516 0)"/>
     <use xlink:href="#DejaVuSans-Bold-65" transform="translate(244.53125 0)"/>
     <use xlink:href="#DejaVuSans-Bold-6d" transform="translate(312.353516 0)"/>
     <use xlink:href="#DejaVuSans-Bold-20" transform="translate(416.552734 0)"/>
     <use xlink:href="#DejaVuSans-Bold-50" transform="translate(451.367188 0)"/>
     <use xlink:href="#DejaVuSans-Bold-72" transform="translate(524.658203 0)"/>
     <use xlink:href="#DejaVuSans-Bold-6f" transform="translate(573.974609 0)"/>
     <use xlink:href="#DejaVuSans-Bold-6d" transform="translate(642.675781 0)"/>
     <use xlink:href="#DejaVuSans-Bold-70" transform="translate(746.875 0)"/>
     <use xlink:href="#DejaVuSans-Bold-74" transform="translate(818.457031 0)"/>
     <use xlink:href="#DejaVuSans-Bold-20" transform="translate(866.259766 0)"/>
     <use xlink:href="#DejaVuSans-Bold-28" transform="translate(901.074219 0)"/>
     <use xlink:href="#DejaVuSans-Bold-73" transform="translate(946.777344 0)"/>
     <use xlink:href="#DejaVuSans-Bold-6f" transform="translate(1006.298828 0)"/>
     <use xlink:href="#DejaVuSans-Bold-6c" transform="translate(1075 0)"/>
     <use xlink:href="#DejaVuSans-Bold-76" transform="translate(1109.277344 0)"/>
     <use xlink:href="#DejaVuSans-Bold-65" transform="translate(1174.462891 0)"/>
     <use xlink:href="#DejaVuSans-Bold-72" transform="translate(1242.285156 0)"/>
     <use xlink:href="#DejaVuSans-Bold-20" transform="translate(1291.601562 0)"/>
     <use xlink:href="#DejaVuSans-Bold-61" transform="translate(1326.416016 0)"/>
     <use xlink:href="#DejaVuSans-Bold-67" transform="translate(1393.896484 0)"/>
     <use xlink:href="#DejaVuSans-Bold-65" transform="translate(1465.478516 0)"/>
     <use xlink:href="#DejaVuSans-Bold-6e" transform="translate(1533.300781 0)"/>
     <use xlink:href="#DejaVuSans-Bold-74" transform="translate(1604.492188 0)"/>
     <use xlink:href="#DejaVuSans-Bold-20" transform="translate(1652.294922 0)"/>
     <use xlink:href="#DejaVuSans-Bold-2b" transform="translate(1687.109375 0)"/>
     <use xlink:href="#DejaVuSans-Bold-20" transform="translate(1770.898438 0)"/>
     <use xlink:href="#DejaVuSans-Bold-77" transform="translate(1805.712891 0)"/>
     <use xlink:href="#DejaVuSans-Bold-6f" transform="translate(1898.095703 0)"/>
     <use xlink:href="#DejaVuSans-Bold-72" transform="translate(1966.796875 0)"/>
     <use xlink:href="#DejaVuSans-Bold-6b" transform="translate(2016.113281 0)"/>
     <use xlink:href="#DejaVuSans-Bold-66" transform="translate(2082.617188 0)"/>
     <use xlink:href="#DejaVuSans-Bold-6c" transform="translate(2126.123047 0)"/>
     <use xlink:href="#DejaVuSans-Bold-6f" transform="translate(2160.400391 0)"/>
     <use xlink:href="#DejaVuSans-Bold-77" transform="translate(2229.101562 0)"/>
     <use xlink:href="#DejaVuSans-Bold-29" transform="translate(2321.484375 0)"/>
    </g>
   </g>
   <g id="text_12">
    <!-- Agentic Synthesis -->
    <g style="fill: #1a3a6b" transform="translate(691.126328 17.077969) scale(0.13 -0.13)">
     <defs>
      <path id="DejaVuSans-Bold-68" d="M 4056 2131 
L 4056 0 
L 2931 0 
L 2931 347 
L 2931 1625 
Q 2931 2084 2911 2256 
Q 2891 2428 2841 2509 
Q 2775 2619 2662 2680 
Q 2550 2741 2406 2741 
Q 2056 2741 1856 2470 
Q 1656 2200 1656 1722 
L 1656 0 
L 538 0 
L 538 4863 
L 1656 4863 
L 1656 2988 
Q 1909 3294 2193 3439 
Q 2478 3584 2822 3584 
Q 3428 3584 3742 3212 
Q 4056 2841 4056 2131 
z
" transform="scale(0.015625)"/>
     </defs>
     <use xlink:href="#DejaVuSans-Bold-41"/>
     <use xlink:href="#DejaVuSans-Bold-67" transform="translate(77.392578 0)"/>
     <use xlink:href="#DejaVuSans-Bold-65" transform="translate(148.974609 0)"/>
     <use xlink:href="#DejaVuSans-Bold-6e" transform="translate(216.796875 0)"/>
     <use xlink:href="#DejaVuSans-Bold-74" transform="translate(287.988281 0)"/>
     <use xlink:href="#DejaVuSans-Bold-69" transform="translate(335.791016 0)"/>
     <use xlink:href="#DejaVuSans-Bold-63" transform="translate(370.068359 0)"/>
     <use xlink:href="#DejaVuSans-Bold-20" transform="translate(429.345703 0)"/>
     <use xlink:href="#DejaVuSans-Bold-53" transform="translate(464.160156 0)"/>
     <use xlink:href="#DejaVuSans-Bold-79" transform="translate(536.181641 0)"/>
     <use xlink:href="#DejaVuSans-Bold-6e" transform="translate(601.367188 0)"/>
     <use xlink:href="#DejaVuSans-Bold-74" transform="translate(672.558594 0)"/>
     <use xlink:href="#DejaVuSans-Bold-68" transform="translate(720.361328 0)"/>
     <use xlink:href="#DejaVuSans-Bold-65" transform="translate(791.552734 0)"/>
     <use xlink:href="#DejaVuSans-Bold-73" transform="translate(859.375 0)"/>
     <use xlink:href="#DejaVuSans-Bold-69" transform="translate(918.896484 0)"/>
     <use xlink:href="#DejaVuSans-Bold-73" transform="translate(953.173828 0)"/>
    </g>
   </g>
  </g>
 </g>
 <defs>
  <clipPath id="p65b772d345">
   <rect x="7.2" y="31.077969" width="496.5" height="613.92"/>
  </clipPath>
  <clipPath id="p9664118cb7">
   <rect x="508.7" y="31.077969" width="496.5" height="613.92"/>
  </clipPath>
 </defs>
</svg>
